<?xml version="1.0" encoding="UTF-8"?>
<!DOCTYPE svg PUBLIC "-//W3C//DTD SVG 1.1//EN" "http://www.w3.org/Graphics/SVG/1.1/DTD/svg11.dtd">
<!-- Creator: CorelDRAW -->
<svg xmlns="http://www.w3.org/2000/svg" xml:space="preserve" width="33mm" height="12mm" version="1.1" style="shape-rendering:geometricPrecision; text-rendering:geometricPrecision; image-rendering:optimizeQuality; fill-rule:evenodd; clip-rule:evenodd"
viewBox="0 0 3300 1200"
 xmlns:xlink="http://www.w3.org/1999/xlink"
 xmlns:xodm="http://www.corel.com/coreldraw/odm/2003">
 <defs>
  <style type="text/css">
   <![CDATA[
    .fil4 {fill:#FEFEFE;fill-rule:nonzero}
    .fil2 {fill:#76BC79;fill-rule:nonzero}
    .fil1 {fill:#353434;fill-rule:nonzero}
    .fil0 {fill:#4B7464;fill-rule:nonzero}
    .fil3 {fill:url(#id0)}
   ]]>
  </style>
  <linearGradient id="id0" gradientUnits="userSpaceOnUse" x1="2378.17" y1="592.55" x2="2724.6" y2="1268.25">
   <stop offset="0" style="stop-opacity:1; stop-color:#4B7464"/>
   <stop offset="0.329412" style="stop-opacity:1; stop-color:#60986E"/>
   <stop offset="0.568627" style="stop-opacity:1; stop-color:#76BC79"/>
   <stop offset="0.729412" style="stop-opacity:1; stop-color:#529064"/>
   <stop offset="1" style="stop-opacity:1; stop-color:#2E634F"/>
  </linearGradient>
 </defs>
 <g id="Слой_x0020_1">
  <metadata id="CorelCorpID_0Corel-Layer"/>
  <g id="_2257377692704">
   <g>
    <path class="fil0" d="M291.63 530.43c43.96,0 87.95,0.04 131.91,-0.03 13.21,0 11.68,1.39 11.68,-11.7 0.07,-67.29 0.03,-134.6 0.03,-201.92 0,-12.94 1.27,-11.87 -11.74,-11.87 -87.92,0 -175.88,0 -263.83,0 -12.94,0 -11.67,-1.07 -11.71,11.9 0,67.31 0,134.6 0,201.91 0,2.79 0.04,5.6 0.13,8.38 0.06,2.04 1.23,3.14 3.24,3.2 3.13,0.1 6.27,0.13 9.41,0.13 43.64,0 87.24,0 130.88,0zm0.49 -345.86c83.74,0 167.49,0 251.24,0.04 14.39,0 12.84,-1.52 12.84,12.87 0,147.15 0,294.27 0,441.42 0,13.74 1.23,12.41 -12.26,12.41 -168.21,0.04 -336.38,0 -504.59,0 -1.39,0 -2.79,0.04 -4.17,0 -8.02,-0.13 -8.02,-0.13 -8.15,-8.18 -0.04,-2.1 0,-4.17 0,-6.27 0,-146.09 0,-292.2 0.02,-438.32 0,-15.84 -1.97,-13.93 13.82,-13.93 83.75,-0.04 167.49,-0.04 251.25,-0.04z"/>
    <path class="fil1" d="M3129.26 475.82c0,-7.68 0,-15.34 0,-23.01 0,-5.56 0.06,-11.12 -0.07,-16.69 -0.06,-3.42 -0.94,-4.04 -4.59,-3.78 -1.04,0.1 -2.07,0.23 -3.14,0.32 -17.31,1.92 -34.65,3.59 -51.91,5.82 -12.4,1.62 -24.79,3.7 -37.08,6.18 -11.64,2.37 -22.74,6.41 -32.57,13.43 -10.09,7.21 -16.44,16.66 -18.6,29.08 -1.84,10.48 -1.01,20.8 1.1,31.09 0.9,4.49 3.3,8.38 6.44,11.77 8.3,8.96 18.37,14.69 30.37,17.17 10.67,2.2 21.48,2.18 32.28,2.18 27.57,0 51.56,-10.14 73.47,-26.15 3.1,-2.26 4.43,-4.87 4.36,-8.76 -0.19,-12.88 -0.06,-25.78 -0.06,-38.65zm0 109.81c-4.21,3.07 -6.67,4.85 -9.13,6.64 -9.08,6.47 -18.05,13.16 -27.29,19.38 -23.94,16.17 -50.79,24.12 -79.19,27.59 -11.45,1.39 -22.94,2.1 -34.46,1.74 -36.91,-1.13 -69.73,-12.58 -97,-38.14 -23.42,-21.96 -36.33,-48.93 -38.85,-80.96 -1.3,-16.82 -0.49,-33.48 3.2,-49.91 6.53,-29.28 23.16,-51.83 47.38,-69.04 17.83,-12.67 37.79,-20.9 58.59,-27.07 21.74,-6.47 43.99,-10.74 66.57,-13.16 23.94,-2.56 47.87,-5.12 71.81,-7.45 10.78,-1.06 21.58,-1.55 32.38,-2.33 2.04,-0.15 4.08,-0.48 5.99,-0.7 1.32,-9.91 -0.4,-19.64 -4.85,-28.48 -4.44,-8.66 -11.2,-15 -19.74,-19.56 -9.31,-4.95 -19.34,-7.96 -29.59,-10.06 -24.78,-5.08 -49.89,-5.86 -75.02,-4.11 -16.01,1.1 -31.73,4.47 -47.1,9.32 -18.24,5.78 -36.52,11.48 -54.67,17.69 -5.14,1.75 -10.15,1.97 -15.4,1.97 -2.68,0 -3.58,-1.52 -3.52,-4.01 0.07,-1.72 0,-3.46 0,-5.21 0,-27.55 0,-55.12 0,-82.64 0,-1.76 -0.03,-3.5 0.03,-5.25 0.16,-4.46 0.23,-4.75 4.44,-5.62 13.28,-2.81 26.58,-5.73 39.98,-8.02 15.78,-2.73 31.7,-4.89 47.55,-7.22 21.09,-3.14 42.37,-4.14 63.65,-4.62 25.82,-0.62 51.64,0.35 77.28,3.36 25.69,3.04 50.92,8.12 74.89,18.37 11.29,4.82 21.83,10.88 31.48,18.44 23.25,18.34 36.29,42.7 41.95,71.42 2.3,11.71 3.07,23.52 3.07,35.36 0.13,92.06 0.07,184.16 0.07,276.22 0,1.74 0.03,3.49 -0.03,5.21 -0.19,4.17 -0.68,4.68 -5.05,4.85 -2.43,0.06 -4.88,0.03 -7.31,0.03 -36.65,0 -73.3,0 -109.95,0 -2.1,0 -4.2,0.03 -6.28,-0.03 -5.3,-0.2 -5.82,-0.62 -5.85,-6.15 -0.07,-11.83 -0.03,-23.71 -0.03,-37.85z"/>
    <path class="fil1" d="M1609.49 476.22c0,-11.84 0,-23.71 0,-35.55 0,-2.11 0,-4.21 -0.26,-6.24 -0.13,-0.95 -0.78,-2.01 -2.07,-2.01 -1.72,0.04 -3.46,0.04 -5.17,0.19 -17.67,1.95 -35.36,3.69 -53.02,5.93 -14.85,1.87 -29.7,3.88 -44.16,8.02 -9.77,2.84 -19.02,6.82 -27.1,13.13 -9.51,7.41 -15.12,17.05 -16.69,29.08 -1.14,8.76 -0.59,17.4 0.57,26.07 0.85,6.4 3.79,11.87 8.39,16.46 8.34,8.36 18.17,13.76 29.88,16.02 11.39,2.2 22.9,2.27 34.38,2 26.76,-0.64 50.05,-10.86 71.31,-26.52 3.16,-2.36 4.04,-5.18 4,-8.93 -0.16,-12.55 -0.06,-25.1 -0.06,-37.65zm134.3 2.62c0,47.06 0,94.17 -0.02,141.23 0,9.41 1.22,9.6 -9.74,9.6 -38.39,-0.06 -76.76,-0.02 -115.16,-0.02 -9.96,0.02 -9.41,0.32 -9.38,-9.93 0,-8.03 0,-16.05 0,-24.07 0,-2.08 0,-4.18 -0.1,-6.28 -0.03,-1.56 -1.58,-2.55 -2.78,-1.75 -2.29,1.56 -4.53,3.21 -6.8,4.83 -8.53,6.07 -16.98,12.25 -25.55,18.24 -19.8,13.75 -41.95,21.77 -65.47,26.24 -16.5,3.1 -33.16,4.59 -49.97,4.07 -42.48,-1.4 -78.81,-16.43 -106.98,-48.98 -17.98,-20.79 -27.15,-45.22 -28.76,-72.49 -0.87,-15.01 -0.26,-29.98 2.75,-44.77 5.82,-28.62 20.99,-51.23 44.06,-68.89 15.1,-11.56 32.06,-19.61 49.88,-25.89 24.74,-8.69 50.36,-13.94 76.37,-16.98 24.95,-2.91 49.95,-5.37 74.92,-7.8 11.81,-1.12 23.67,-1.71 35.48,-2.52 2.59,-0.19 3.63,-1.48 3.56,-4.04 -0.48,-20.96 -9.02,-36.91 -28.56,-46.03 -12.45,-5.82 -25.72,-8.73 -39.21,-10.71 -19.04,-2.78 -38.23,-3.1 -57.41,-2.23 -17.5,0.81 -34.61,4.3 -51.3,9.42 -18.31,5.59 -36.46,11.71 -54.71,17.56 -2.94,0.93 -5.72,2.43 -9.02,2.39 -11.29,-0.16 -10.52,1.2 -10.52,-9.77 0,-27.52 0,-55.09 0,-82.61 0,-1.42 -0.02,-2.82 0.04,-4.21 0.19,-5.08 0.16,-5.21 4.98,-6.31 8.83,-2.03 17.63,-4.2 26.55,-5.69 21.68,-3.59 43.32,-7.4 65.13,-10.13 29.43,-3.62 59.06,-4.87 88.76,-3.78 15.33,0.55 30.66,1.2 45.93,3.04 24.65,2.98 48.9,7.51 72.04,16.83 6.76,2.74 13.42,5.88 19.76,9.47 31.02,17.47 49.75,43.99 57.23,78.57 2.75,12.62 4,25.46 4,38.4 -0.02,45.36 0,90.67 0,135.99z"/>
    <path class="fil1" d="M2748.89 628.58c-2.2,1.52 -4.72,1.04 -7.11,1.04 -39.79,0.03 -79.58,0.03 -119.34,0.03 -1.42,0 -2.81,0.03 -4.2,-0.03 -4.08,-0.27 -4.52,-0.74 -4.66,-5.18 -0.07,-2.78 -0.03,-5.57 -0.03,-8.37 0,-67.29 0,-134.61 0.03,-201.89 0,-18.86 -1.23,-37.62 -4.17,-56.25 -0.65,-4.15 -1.43,-8.25 -2.46,-12.3 -5.21,-20.77 -18.66,-32.95 -39.43,-37.07 -22.68,-4.49 -45.12,-3.23 -67.09,4.18 -11.9,4.01 -23.13,9.64 -34.13,15.69 -3.59,1.97 -5.01,4.43 -4.79,8.34 0.19,2.78 0.04,5.56 0.04,8.35 0,90.67 0.03,181.34 0,272.01 0,14 1.46,12.49 -12.07,12.52 -38.01,0.03 -76.05,0 -114.08,0 -9.91,0 -9.13,0 -9.13,-9.09 0,-134.64 0,-269.23 0,-403.83 0,-1.74 0,-3.5 0.07,-5.24 0.02,-1.98 0.93,-3.27 3.07,-3.34 1.39,-0.02 2.78,-0.09 4.17,-0.09 40.5,0 80.97,0 121.47,0.03 1.71,0 3.45,0.19 4.98,0.26 2,2.3 1.48,4.82 1.52,7.21 0.03,10.8 0,21.62 0.06,32.42 0.03,1.29 0.23,3.11 1.07,3.72 1.71,1.32 3.11,-0.42 4.46,-1.43 12.85,-9.57 26.08,-18.66 40.02,-26.62 14.56,-8.34 29.56,-15.52 45.77,-20.18 22.81,-6.54 46,-7.6 69.45,-6.05 16.85,1.1 33.16,4.69 48.65,11.39 35.87,15.56 58.72,42.69 70,79.8 5.85,19.12 8.64,38.75 8.64,58.74 0.06,91.35 0.03,182.73 0,274.08 0,2.39 0.51,4.89 -0.78,7.15z"/>
    <path class="fil1" d="M788.59 208.07l10.25 0c46.05,0 92.15,0 138.22,0 1.75,0 3.49,0.09 5.24,0 2.68,-0.19 4.69,0.71 6.17,3.01 1.33,2.04 2.85,3.98 4.24,5.95 24.98,34.87 49.95,69.74 74.92,104.61 2.23,3.1 4.53,6.15 6.7,9.09 2.94,-1.13 3.87,-3.49 5.2,-5.37 25.3,-35.09 50.5,-70.22 75.76,-105.32 2.01,-2.84 4.24,-5.57 6.08,-8.51 1.69,-2.72 3.92,-3.71 6.99,-3.49 1.75,0.12 3.49,0.03 5.24,0.03l135.09 0 8.21 0c1,3.85 -1.9,5.4 -3.49,7.41 -33.03,41.92 -66.12,83.78 -99.24,125.64 -17.73,22.45 -35.49,44.87 -53.22,67.28 -1.71,2.2 -3.39,4.4 -5.3,6.92 1.1,3.43 3.66,5.82 5.72,8.51 50.66,65.31 101.35,130.62 151.98,195.93 2.1,2.69 4.65,5.11 5.65,8.35 -1.42,1.94 -3.26,1.52 -4.95,1.52 -48.16,0.02 -96.32,-0.1 -144.49,0.15 -5.89,0.04 -8.7,-2.88 -11.62,-6.98 -26.1,-36.65 -52.27,-73.23 -78.47,-109.82 -1.94,-2.72 -3.3,-6.09 -6.56,-7.74 -3.08,2.11 -4.7,5.28 -6.74,8.06 -26.19,35.72 -52.36,71.46 -78.53,107.17 -1.23,1.68 -2.56,3.33 -3.7,5.08 -1.84,2.94 -4.3,4.44 -7.82,4.1 -1.39,-0.12 -2.79,0 -4.21,0 -45.35,0 -90.73,0 -136.12,-0.06 -2.62,0 -5.56,1.01 -8.44,-1.55 2.26,-3.01 4.46,-6.05 6.79,-8.99 50.37,-63.76 100.77,-127.51 151.17,-191.28 8.18,-10.34 7.44,-7.69 0.09,-17.14 -49.78,-64.24 -99.62,-128.42 -149.44,-192.6 -2.1,-2.71 -4.11,-5.53 -7.37,-9.96z"/>
    <path class="fil1" d="M2009.24 528.76l13.75 0c65.6,0 131.24,0 196.83,0 13.21,0 11.97,-1.16 11.97,11.58 0.04,26.17 0,52.31 0,78.48 0,2.43 0,4.88 -0.06,7.3 -0.03,2.08 -1.23,3.21 -3.2,3.34 -2.42,0.13 -4.89,0.19 -7.31,0.19 -125.32,0 -250.6,0 -375.91,0 -1.72,0 -3.47,0.03 -5.21,-0.03 -4.17,-0.19 -4.8,-0.71 -4.82,-5.07 -0.07,-19.87 -0.04,-39.76 -0.04,-59.62 0,-5.6 0.14,-11.16 -0.03,-16.76 -0.13,-3.75 1.1,-6.6 3.72,-9.32 7.08,-7.21 13.92,-14.68 20.87,-22.02 62.92,-66.77 125.83,-133.54 188.68,-200.37 2.33,-2.49 5.4,-4.46 6.51,-7.98 -3.18,-3.34 -7.22,-1.43 -10.75,-1.43 -62.82,-0.16 -125.63,-0.09 -188.45,-0.13 -12.75,0 -11.23,1.33 -11.26,-11 -0.07,-25.81 0,-51.62 0,-77.44 0,-2.42 0,-4.85 0.09,-7.31 0.1,-2.1 1.39,-3.01 3.37,-3.04 2.81,-0.03 5.6,-0.07 8.38,-0.07 40.14,0 80.28,0 120.39,0l237.7 0c2.78,0 5.59,-0.06 8.37,0.04 4.24,0.13 4.72,0.55 4.76,5.02 0.03,25.45 0,50.9 0.06,76.37 0,2.62 -0.71,4.72 -2.45,6.59 -2.4,2.53 -4.72,5.14 -7.12,7.7 -66.93,72.07 -133.89,144.11 -200.85,216.18 -2.1,2.27 -4.14,4.57 -7.99,8.8z"/>
    <path class="fil2" d="M291.56 184.54c-44.29,0 -88.58,0 -132.86,0 -11.71,0 -10.87,0.68 -9.97,-11 1.88,-25.13 9.97,-48.32 24.37,-69.13 23.64,-34.15 56.15,-55.41 97.16,-60.98 84.34,-11.41 147.35,44.33 161.85,112.64 1.74,8.15 3,16.47 2.65,24.88 -0.07,1.97 -0.91,3.33 -3.05,3.43 -3.1,0.1 -6.23,0.16 -9.38,0.16 -43.6,0 -87.17,0 -130.77,0z"/>
   </g>
   <path class="fil3" d="M2049.76 714.38l1219.27 0 0 247.86c0,101.3 -82.88,184.18 -184.19,184.18l-1251.11 0 0 -216.03c0,-118.81 97.2,-216.01 216.03,-216.01z"/>
   <path class="fil4" d="M2067.08 834.24c16.39,0 31.05,3.27 43.99,9.8 12.93,6.53 23.11,16.51 30.53,29.96 7.43,13.44 11.14,30.66 11.14,51.66l0 118.31 -59.92 0 0 -109.09c0,-16.65 -3.65,-28.94 -10.95,-36.88 -7.3,-7.93 -17.6,-11.9 -30.92,-11.9 -9.47,0 -17.99,1.98 -25.54,5.95 -7.56,3.97 -13.45,10.05 -17.67,18.25 -4.23,8.19 -6.34,18.69 -6.34,31.49l0 102.18 -59.92 0 0 -206.66 57.23 0 0 57.24 -10.75 -17.29c7.42,-13.83 18.05,-24.45 31.88,-31.88 13.83,-7.43 29.57,-11.14 47.24,-11.14z"/>
   <path id="_1" class="fil4" d="M2333.67 1043.97l0 -40.33 -3.84 -8.84 0 -72.21c0,-12.81 -3.91,-22.79 -11.72,-29.96 -7.81,-7.17 -19.78,-10.76 -35.92,-10.76 -11.01,0 -21.83,1.73 -32.45,5.19 -10.63,3.45 -19.66,8.13 -27.08,14.02l-21.52 -41.87c11.27,-7.94 24.84,-14.09 40.72,-18.44 15.88,-4.35 32.01,-6.53 48.4,-6.53 31.5,0 55.95,7.43 73.37,22.28 17.41,14.85 26.12,38.03 26.12,69.53l0 117.92 -56.08 0zm-63 3.07c-16.13,0 -29.96,-2.75 -41.48,-8.26 -11.53,-5.5 -20.36,-12.99 -26.51,-22.47 -6.14,-9.47 -9.22,-20.1 -9.22,-31.88 0,-12.29 3.01,-23.05 9.03,-32.26 6.02,-9.22 15.56,-16.46 28.62,-21.71 13.06,-5.25 30.09,-7.87 51.08,-7.87l54.93 0 0 34.95 -48.4 0c-14.08,0 -23.75,2.31 -29,6.92 -5.25,4.61 -7.87,10.37 -7.87,17.28 0,7.68 3.01,13.77 9.03,18.25 6.01,4.48 14.27,6.72 24.77,6.72 9.99,0 18.95,-2.37 26.89,-7.11 7.94,-4.73 13.7,-11.71 17.29,-20.93l9.21 27.66c-4.35,13.31 -12.29,23.43 -23.81,30.34 -11.53,6.92 -26.38,10.37 -44.56,10.37z"/>
   <path id="_2" class="fil4" d="M2513.43 1047.04c-17.67,0 -34.63,-2.11 -50.89,-6.34 -16.26,-4.22 -29.13,-9.53 -38.61,-15.94l19.98 -43.02c9.47,5.89 20.68,10.69 33.61,14.41 12.93,3.71 25.67,5.57 38.22,5.57 13.83,0 23.62,-1.67 29.38,-5 5.76,-3.33 8.64,-7.94 8.64,-13.83 0,-4.86 -2.24,-8.51 -6.72,-10.94 -4.48,-2.44 -10.43,-4.29 -17.86,-5.57 -7.43,-1.28 -15.56,-2.56 -24.39,-3.84 -8.84,-1.28 -17.73,-3.01 -26.7,-5.19 -8.96,-2.18 -17.15,-5.44 -24.58,-9.79 -7.43,-4.36 -13.38,-10.25 -17.86,-17.67 -4.48,-7.43 -6.72,-17.03 -6.72,-28.81 0,-13.06 3.77,-24.59 11.33,-34.57 7.55,-9.99 18.5,-17.87 32.84,-23.63 14.34,-5.76 31.5,-8.64 51.47,-8.64 14.09,0 28.43,1.54 43.02,4.61 14.6,3.07 26.76,7.55 36.49,13.44l-19.97 42.64c-9.99,-5.89 -20.04,-9.92 -30.15,-12.1 -10.12,-2.18 -19.91,-3.26 -29.39,-3.26 -13.31,0 -23.05,1.79 -29.19,5.37 -6.15,3.59 -9.22,8.2 -9.22,13.83 0,5.12 2.24,8.97 6.72,11.53 4.48,2.56 10.44,4.61 17.86,6.14 7.43,1.54 15.56,2.88 24.4,4.04 8.83,1.15 17.73,2.88 26.69,5.18 8.96,2.31 17.09,5.57 24.39,9.8 7.3,4.22 13.26,9.98 17.86,17.28 4.61,7.3 6.92,16.84 6.92,28.62 0,12.8 -3.84,24.13 -11.52,33.99 -7.69,9.86 -18.76,17.61 -33.23,23.24 -14.47,5.64 -32.08,8.45 -52.82,8.45z"/>
   <path id="_3" class="fil4" d="M2648.64 1043.97l-0.76 -206.66 59.54 0.39 0.38 206.27 -59.16 0zm29.2 -235.47c-11.01,0 -19.98,-3.2 -26.89,-9.6 -6.91,-6.4 -10.37,-14.34 -10.37,-23.81 0,-9.48 3.46,-17.42 10.37,-23.82 6.91,-6.4 15.88,-9.6 26.89,-9.6 11.01,0 19.97,3.01 26.89,9.02 6.91,6.02 10.37,13.77 10.37,23.24 0,9.99 -3.4,18.25 -10.18,24.78 -6.79,6.53 -15.81,9.79 -27.08,9.79z"/>
   <path id="_4" class="fil4" d="M2789.62 1121.56c-10.76,0 -21.39,-1.66 -31.89,-4.99 -10.49,-3.33 -19.07,-7.94 -25.73,-13.83l21.89 -42.64c4.61,4.1 9.93,7.3 15.94,9.61 6.02,2.3 11.98,3.45 17.87,3.45 8.45,0 15.17,-1.98 20.16,-5.95 5,-3.97 9.54,-10.56 13.64,-19.78l10.75 -25.35 4.61 -6.53 74.14 -178.24 57.62 0 -93.34 219.34c-6.66,16.64 -14.28,29.7 -22.86,39.18 -8.58,9.47 -18.05,16.13 -28.42,19.97 -10.38,3.84 -21.84,5.76 -34.38,5.76zm35.34 -69.52l-92.19 -214.73 61.84 0 71.45 172.86 -41.1 41.87z"/>
   <path id="_5" class="fil4" d="M3113.05 1043.97l0 -40.33 -3.84 -8.84 0 -72.21c0,-12.81 -3.91,-22.79 -11.72,-29.96 -7.81,-7.17 -19.78,-10.76 -35.92,-10.76 -11.01,0 -21.83,1.73 -32.45,5.19 -10.63,3.45 -19.66,8.13 -27.08,14.02l-21.52 -41.87c11.27,-7.94 24.84,-14.09 40.72,-18.44 15.88,-4.35 32.01,-6.53 48.4,-6.53 31.5,0 55.95,7.43 73.37,22.28 17.41,14.85 26.12,38.03 26.12,69.53l0 117.92 -56.08 0zm-63 3.07c-16.13,0 -29.96,-2.75 -41.48,-8.26 -11.53,-5.5 -20.36,-12.99 -26.51,-22.47 -6.14,-9.47 -9.22,-20.1 -9.22,-31.88 0,-12.29 3.01,-23.05 9.03,-32.26 6.02,-9.22 15.56,-16.46 28.62,-21.71 13.06,-5.25 30.09,-7.87 51.08,-7.87l54.93 0 0 34.95 -48.4 0c-14.08,0 -23.75,2.31 -29,6.92 -5.25,4.61 -7.87,10.37 -7.87,17.28 0,7.68 3.01,13.77 9.03,18.25 6.01,4.48 14.27,6.72 24.77,6.72 9.99,0 18.95,-2.37 26.89,-7.11 7.94,-4.73 13.7,-11.71 17.29,-20.93l9.21 27.66c-4.35,13.31 -12.29,23.43 -23.81,30.34 -11.53,6.92 -26.38,10.37 -44.56,10.37z"/>
  </g>
 </g>
</svg>
